<svg xmlns="http://www.w3.org/2000/svg" xmlns:xlink="http://www.w3.org/1999/xlink" width="48" height="48" viewBox="0 0 48 48"><path fill="#FFC107" d="M34.099 26.722c.092.449.081.894.067 1.353-.032.453-.116.908-.255 1.353-.135.438-.174.994-.591 1.288-.395.293-.9.504-1.581.361l-.129-.152c-.053-.685.02-1.074.132-1.438.094-.361.5-.51.752-.805.246-.289.489-.6.726-.932.253-.326.461-.686.682-1.056L34.099 26.722zM36.424 28.722c.092.449.081.894.067 1.353-.032.453-.116.908-.255 1.353-.135.438-.174.994-.591 1.288-.395.293-.9.504-1.581.361l-.129-.152c-.053-.685.02-1.074.132-1.438.094-.361.5-.51.752-.805.246-.289.489-.6.726-.932.253-.326.461-.686.682-1.056L36.424 28.722zM31.424 26.014c.092.449.081.894.067 1.353-.032.453-.116.908-.255 1.353-.135.438-.174.994-.591 1.288-.395.293-.9.504-1.581.361l-.129-.152c-.053-.685.02-1.074.132-1.438.094-.36.5-.51.752-.805.246-.289.489-.599.726-.931.253-.327.461-.687.682-1.057L31.424 26.014zM28.424 26.014c.092.449.081.894.067 1.353-.032.453-.116.908-.255 1.353-.135.438-.174.994-.591 1.288-.395.293-.9.504-1.581.361l-.129-.152c-.053-.685.02-1.074.132-1.438.094-.36.5-.51.752-.805.246-.289.489-.599.726-.931.253-.327.461-.687.682-1.057L28.424 26.014zM26.099 25.722c.092.449.081.894.067 1.353-.032.453-.116.908-.255 1.353-.135.438-.174.994-.591 1.288-.395.293-.9.504-1.581.361l-.129-.152c-.053-.685.02-1.074.132-1.438.094-.361.5-.51.752-.805.246-.289.489-.6.726-.932.253-.326.461-.686.682-1.056L26.099 25.722zM34.607 23.97c-.038-.429-.071-.843-.159-1.247-.071-.4-.156-.785-.254-1.152-.101-.375-.403-.684-.332-1.051.056-.375.157-.758.499-1.354l.184-.082c.675.164 1.041.572 1.271 1.008.249.443.046.962-.022 1.416-.065.461-.185.908-.352 1.331-.186.42-.367.825-.643 1.191L34.607 23.97zM31.154 23.97c-.038-.429-.071-.843-.159-1.247-.071-.4-.156-.785-.254-1.152-.101-.375-.403-.684-.332-1.051.056-.375.157-.758.499-1.354l.184-.082c.675.164 1.041.572 1.271 1.008.249.443.046.962-.022 1.416-.065.461-.185.908-.352 1.331-.186.42-.367.825-.643 1.191L31.154 23.97zM28.154 23.845c-.038-.429-.071-.843-.159-1.247-.071-.4-.156-.785-.254-1.152-.101-.375-.403-.684-.332-1.051.056-.375.157-.758.499-1.354l.184-.082c.675.164 1.041.572 1.271 1.008.249.443.046.962-.022 1.416-.065.461-.185.907-.352 1.331-.186.42-.367.825-.643 1.191L28.154 23.845zM25.607 22.845c-.038-.429-.071-.843-.159-1.247-.071-.4-.156-.785-.254-1.152-.101-.375-.403-.684-.332-1.051.056-.375.157-.758.499-1.354l.184-.082c.675.164 1.041.572 1.271 1.008.249.443.046.962-.022 1.416-.065.461-.185.907-.352 1.331-.186.42-.367.825-.643 1.191L25.607 22.845zM23.154 21.845c-.038-.429-.071-.843-.159-1.247-.071-.4-.156-.785-.254-1.152-.101-.375-.403-.684-.332-1.051.056-.375.157-.758.499-1.354l.184-.082c.675.164 1.041.572 1.271 1.008.249.443.046.962-.022 1.416-.065.461-.185.907-.352 1.331-.186.42-.367.825-.643 1.191L23.154 21.845zM37.607 22.97c-.038-.429-.071-.843-.159-1.247-.071-.4-.156-.785-.254-1.152-.101-.375-.403-.684-.332-1.051.056-.375.157-.758.499-1.354l.184-.082c.675.164 1.041.572 1.271 1.008.249.443.046.962-.022 1.416-.065.461-.185.908-.352 1.331-.186.42-.367.825-.643 1.191L37.607 22.97zM40.154 20.845c-.038-.429-.071-.843-.159-1.247-.071-.4-.156-.785-.254-1.152-.101-.375-.403-.684-.332-1.051.056-.375.157-.758.499-1.354l.184-.082c.675.164 1.041.572 1.271 1.008.249.443.046.962-.022 1.416-.065.461-.185.907-.352 1.331-.186.42-.367.825-.643 1.191L40.154 20.845z"/><path fill="#63560A" d="M10,42c0,0-4-7-3-21S17,7,19,7s8,2,10,2s8-1,9-1s5-1,5,5v4c0,0-3,3-7,3s-15,0-15,0l-2,4c0,0,1,13,11,18H10z"/><path fill="#FF1744" d="M36,31c-8-3-12-5-14-6s-3-1-1-4c0,0-3,2-7,2c2,3,3,1,8,4c4.176,2.506,12.533,5.01,15.176,5.768C37.696,31.851,36,31,36,31z"/><path fill="#D50000" d="M14,23c-0.563,0.141-1.257,0.26-2,0.373v2.023c0.816-0.118,1.58-0.245,2.245-0.398c2.28-0.041,4.246-0.633,5.649-1.211C19.902,23.002,20.193,22.075,21,21C21,21,18,23,14,23z"/><path fill="#827717" d="M38,8c-1,0-7,1-9,1c-1.289,0-4.232-0.827-6.703-1.417C18.637,5.466,17,6,17,6s-5,0-5,6c0,2-1,3-1,3s-2,2-2,7c0,4,1,6,1,6s1,3,4,4l19,3c0,0,4,1,5-2c0,0-11-3-16-6s-6-1-8-4c4,0,7-2,7-2s7,0,12,0c7,0,10-4,10-4c0-0.474,0-1.58,0-4C43,7,39,8,38,8z"/><path fill="#423603" d="M22,27c-3.09-1.854-4.651-1.806-5.866-2.203c-0.263-0.119-0.593-0.25-0.938-0.473c-0.129-0.095-0.256-0.197-0.386-0.324c-0.012,0-0.022,0-0.034,0c-0.271-0.244-0.539-0.56-0.775-1c0,0-1,0-2-1c-0.06-0.06-0.132-0.132-0.197-0.197c-0.421,0.773,0.235,1.863,0.459,2.197c-0.001,0-0.002,0-0.002,0c0.011,0.016,0.017,0.024,0.025,0.037c0.014,0.02,0.016,0.023,0.024,0.035c0.016,0.022,0.026,0.037,0.026,0.037c0.172,0.258,0.342,0.482,0.512,0.693l0,0c1.336,1.653,2.615,1.938,3.855,2.207c0.995,0.216,2.233,0.484,4.268,1.705c4.379,2.627,12.824,5.166,15.63,5.969C37.199,34.361,37.719,33.842,38,33C38,33,27,30,22,27z"/><g><path fill="#544B09" d="M14 12c0-2.209 1.237-4 4-4 4 0 7 4 7 4s-2 5-7 5C15.237 17 14 14.209 14 12zM43 14c0 0-1.75 2.688-4.324 3.785C37.328 18.439 35.461 19 33 19H21h-.605l-.504.336C19.865 19.353 16.99 21.243 14 21c-1.106-.09-1.847.386-2.197.803C11.868 21.868 11.94 21.94 12 22c1 1 2 1 2 1 4 0 7-2 7-2s7 0 12 0c.412 0 .809-.016 1.193-.043.129-.008.249-.023.375-.035.251-.022.5-.047.739-.08.14-.019.273-.042.409-.064.213-.035.424-.072.627-.113.135-.029.267-.059.396-.09.192-.045.38-.094.563-.145.124-.035.248-.069.367-.106.181-.056.354-.114.523-.175.107-.038.218-.075.321-.115.181-.068.353-.142.522-.215.08-.035.165-.068.243-.104.238-.109.466-.221.68-.334.056-.03.104-.061.158-.09.157-.088.313-.174.456-.262.08-.049.152-.098.229-.146.107-.068.215-.137.314-.205.076-.053.146-.104.218-.155.088-.063.174-.127.255-.188.066-.051.13-.102.191-.15.074-.061.145-.118.211-.175.056-.047.111-.095.162-.139.062-.056.119-.108.174-.159.043-.04.089-.082.127-.119.054-.053.1-.1.146-.146.029-.029.063-.063.089-.09.063-.065.115-.125.159-.174-.011.008-.019.012-.021.012C42.815 17.193 43 17 43 17S43.031 15.875 43 14z"/></g><g><path fill="#282302" d="M21 34L18 34 18 36 20 38 22 37zM23 38L21 39 21 41 24 41 24 39zM17 34L17 36 15 37 13 35 14 33zM18 37L16 38 17 41 20 41 20 39zM13 33L12 35 10 33 11 31zM15 38L13 40 14 41 16 41zM13 36L14 38 12 38zM25 39L25 41 27 41z"/></g><g><path fill="#9E9D24" d="M24 9L26 11 27 10zM27 11L28 10 31 10 31 12zM32 10L32 12 36 11 37 9z"/></g><path fill="#FFEB3B" d="M22,12c0,0-2,2-4,2s-2-2-2-2s0-2,2-2S22,12,22,12z"/><path fill="#263238" d="M19,12c0,1.104-0.5,2-0.5,2S18,13.104,18,12s0.5-2,0.5-2S19,10.896,19,12z"/><path fill="#282302" d="M39.083,10.118c0.764,0.323,1.918,2.884,1.918,2.884s-2.318,0.202-3.082-0.118c-0.764-0.322-1.122-1.201-0.801-1.965C37.44,10.155,38.32,9.797,39.083,10.118z"/></svg>